<svg width="16" height="16" viewBox="0 0 16 16" fill="none" xmlns="http://www.w3.org/2000/svg">
<path d="M14.6667 7.26668V2.73334C14.6667 1.73334 14.24 1.33334 13.18 1.33334H10.4867C9.42667 1.33334 9 1.73334 9 2.73334V7.26668C9 8.26668 9.42667 8.66668 10.4867 8.66668H13.18C14.24 8.66668 14.6667 8.26668 14.6667 7.26668Z" stroke="#F7F8F9" stroke-width="1.5" stroke-linecap="round" stroke-linejoin="round"/>
<path d="M14.6667 13.2667V12.0667C14.6667 11.0667 14.24 10.6667 13.18 10.6667H10.4867C9.42667 10.6667 9 11.0667 9 12.0667V13.2667C9 14.2667 9.42667 14.6667 10.4867 14.6667H13.18C14.24 14.6667 14.6667 14.2667 14.6667 13.2667Z" stroke="#F7F8F9" stroke-width="1.5" stroke-linecap="round" stroke-linejoin="round"/>
<path d="M7.00004 8.73334V13.2667C7.00004 14.2667 6.57337 14.6667 5.51337 14.6667H2.82004C1.76004 14.6667 1.33337 14.2667 1.33337 13.2667V8.73334C1.33337 7.73334 1.76004 7.33334 2.82004 7.33334H5.51337C6.57337 7.33334 7.00004 7.73334 7.00004 8.73334Z" stroke="#F7F8F9" stroke-width="1.5" stroke-linecap="round" stroke-linejoin="round"/>
<path d="M7.00004 2.73334V3.93334C7.00004 4.93334 6.57337 5.33334 5.51337 5.33334H2.82004C1.76004 5.33334 1.33337 4.93334 1.33337 3.93334V2.73334C1.33337 1.73334 1.76004 1.33334 2.82004 1.33334H5.51337C6.57337 1.33334 7.00004 1.73334 7.00004 2.73334Z" stroke="#F7F8F9" stroke-width="1.5" stroke-linecap="round" stroke-linejoin="round"/>
</svg>
