<svg width="40" height="40" viewBox="0 0 40 40" fill="none" xmlns="http://www.w3.org/2000/svg">
<path d="M2.8833 25.3999V25.1833C2.8833 17.7833 5.79997 14.2166 12.3333 13.5999C13.0166 13.5333 13.6333 14.0333 13.7 14.7333C13.7666 15.4166 13.25 16.0333 12.5666 16.0999C7.33331 16.5833 5.3833 19.0499 5.3833 25.1999V25.4166C5.3833 32.1999 7.7833 34.5999 14.5666 34.5999H25.4333C32.2166 34.5999 34.6166 32.1999 34.6166 25.4166V25.1999C34.6166 19.0166 32.6333 16.5499 27.3 16.0999C26.6166 16.0166 26.1 15.4499 26.1666 14.7333C26.2166 14.0333 26.8333 13.5333 27.5166 13.5833C34.15 14.1499 37.1166 17.7333 37.1166 25.1833V25.3999C37.1166 33.5833 33.6166 37.0833 25.4333 37.0833H14.5666C6.3833 37.0833 2.8833 33.5833 2.8833 25.3999Z" fill="white"/>
<path d="M18.75 24.8L18.75 3.33337C18.75 2.65004 19.3167 2.08337 20 2.08337C20.6833 2.08337 21.25 2.65004 21.25 3.33337L21.25 24.8C21.25 25.4834 20.6833 26.05 20 26.05C19.3167 26.05 18.75 25.5 18.75 24.8Z" fill="white"/>
<path d="M13.1667 21.0834C13.1667 20.7667 13.2833 20.45 13.5333 20.2C14.0167 19.7167 14.8167 19.7167 15.3 20.2L20 24.9L24.7 20.2C25.1833 19.7167 25.9833 19.7167 26.4667 20.2C26.95 20.6834 26.95 21.4834 26.4667 21.9667L20.8833 27.55C20.4 28.0334 19.6 28.0334 19.1167 27.55L13.5333 21.9667C13.2833 21.7167 13.1667 21.4 13.1667 21.0834Z" fill="white"/>
</svg>
