<svg width="40" height="40" viewBox="0 0 40 40" fill="none" xmlns="http://www.w3.org/2000/svg">
<path d="M8.33333 16.6666C6.5 16.6666 5 18.1666 5 20C5 21.8333 6.5 23.3333 8.33333 23.3333C10.1667 23.3333 11.6667 21.8333 11.6667 20C11.6667 18.1666 10.1667 16.6666 8.33333 16.6666Z" stroke="white" stroke-width="1.5"/>
<path d="M31.6666 16.6666C29.8333 16.6666 28.3333 18.1666 28.3333 20C28.3333 21.8333 29.8333 23.3333 31.6666 23.3333C33.5 23.3333 35 21.8333 35 20C35 18.1666 33.5 16.6666 31.6666 16.6666Z" stroke="white" stroke-width="1.5"/>
<path d="M20 16.6666C18.1667 16.6666 16.6667 18.1666 16.6667 20C16.6667 21.8333 18.1667 23.3333 20 23.3333C21.8334 23.3333 23.3334 21.8333 23.3334 20C23.3334 18.1666 21.8334 16.6666 20 16.6666Z" stroke="white" stroke-width="1.5"/>
</svg>
