<svg width="28" height="28" viewBox="0 0 28 28" fill="none" xmlns="http://www.w3.org/2000/svg">
<path d="M25.6667 9.94004V4.64337C25.6667 2.99837 24.92 2.33337 23.065 2.33337H18.3517C16.4967 2.33337 15.75 2.99837 15.75 4.64337V9.92837C15.75 11.585 16.4967 12.2384 18.3517 12.2384H23.065C24.92 12.25 25.6667 11.585 25.6667 9.94004Z" fill="white"/>
<path d="M25.6667 23.065V18.3517C25.6667 16.4967 24.92 15.75 23.065 15.75H18.3517C16.4967 15.75 15.75 16.4967 15.75 18.3517V23.065C15.75 24.92 16.4967 25.6667 18.3517 25.6667H23.065C24.92 25.6667 25.6667 24.92 25.6667 23.065Z" fill="white"/>
<path d="M12.25 9.94004V4.64337C12.25 2.99837 11.5033 2.33337 9.64833 2.33337H4.935C3.07999 2.33337 2.33333 2.99837 2.33333 4.64337V9.92837C2.33333 11.585 3.07999 12.2384 4.935 12.2384H9.64833C11.5033 12.25 12.25 11.585 12.25 9.94004Z" fill="white"/>
<path d="M12.25 23.065V18.3517C12.25 16.4967 11.5033 15.75 9.64833 15.75H4.935C3.07999 15.75 2.33333 16.4967 2.33333 18.3517V23.065C2.33333 24.92 3.07999 25.6667 4.935 25.6667H9.64833C11.5033 25.6667 12.25 24.92 12.25 23.065Z" fill="white"/>
</svg>
