<svg width="28" height="28" viewBox="0 0 28 28" fill="none" xmlns="http://www.w3.org/2000/svg">
<path d="M12.3113 24.5163L12.3105 24.5158L6.30099 21.0403C5.04123 20.1918 4.56643 19.812 4.32971 19.4C4.10471 19.0084 4.0517 18.5096 4.0517 17.1617V10.8267C4.0517 9.47829 4.10464 8.98162 4.32505 8.59518C4.5561 8.19009 5.01816 7.81996 6.25468 6.98299L12.3209 3.48502C12.7608 3.23177 13.3659 3.0863 14.0059 3.0863C14.6456 3.0863 15.2504 3.23164 15.6902 3.48468C15.6904 3.48479 15.6906 3.48491 15.6908 3.48502L21.6991 6.95982C22.9604 7.80928 23.4346 8.18603 23.6712 8.5957C23.8952 8.98367 23.9484 9.47831 23.9484 10.8267V17.1734C23.9484 18.5218 23.8954 19.0185 23.675 19.4049C23.444 19.81 22.9819 20.1802 21.7454 21.0171L15.6787 24.5153L15.6787 24.5153L15.6714 24.5196C15.2438 24.7727 14.6381 24.9167 14 24.9167C13.3638 24.9167 12.7545 24.7733 12.3113 24.5163ZM9.45836 14.0001C9.45836 16.5026 11.4975 18.5417 14 18.5417C16.5026 18.5417 18.5417 16.5026 18.5417 14.0001C18.5417 11.4975 16.5026 9.45839 14 9.45839C11.4975 9.45839 9.45836 11.4975 9.45836 14.0001Z" fill="white" stroke="white" stroke-width="1.5"/>
</svg>
