<svg width="28" height="28" viewBox="0 0 28 28" fill="none" xmlns="http://www.w3.org/2000/svg">
<path d="M8.95837 7.87498C8.95837 5.09446 11.2195 2.83331 14 2.83331C16.7802 2.83331 19.0412 5.09393 19.0417 7.87401C19.0306 10.6019 16.9018 12.8051 14.1894 12.905H14.1894H14.1893H14.1893H14.1893H14.1892H14.1892H14.1892H14.1891H14.1891H14.189H14.189H14.189H14.1889H14.1889H14.1889H14.1888H14.1888H14.1888H14.1887H14.1887H14.1887H14.1886H14.1886H14.1885H14.1885H14.1885H14.1884H14.1884H14.1884H14.1883H14.1883H14.1883H14.1882H14.1882H14.1882H14.1881H14.1881H14.1881H14.188H14.188H14.1879H14.1879H14.1879H14.1878H14.1878H14.1878H14.1877H14.1877H14.1877H14.1876H14.1876H14.1876H14.1875H14.1875H14.1875H14.1874H14.1874H14.1874H14.1873H14.1873H14.1873H14.1872H14.1872H14.1872H14.1871H14.1871H14.187H14.187H14.187H14.1869H14.1869H14.1869H14.1868H14.1868H14.1868H14.1867H14.1867H14.1867H14.1866H14.1866H14.1866H14.1865H14.1865H14.1865H14.1864H14.1864H14.1864H14.1863H14.1863H14.1863H14.1862H14.1862H14.1862H14.1861H14.1861H14.1861H14.186H14.186H14.186H14.1859H14.1859H14.1858H14.1858H14.1858H14.1857H14.1857H14.1857H14.1856H14.1856H14.1856H14.1855H14.1855H14.1855H14.1854H14.1854H14.1854H14.1853H14.1853H14.1853H14.1852H14.1852H14.1852H14.1851H14.1851H14.185H14.185H14.185H14.1849H14.1849H14.1849H14.1848H14.1848H14.1848H14.1847H14.1847H14.1847H14.1846H14.1846H14.1845H14.1845H14.1845H14.1844H14.1844H14.1844H14.1843H14.1843H14.1843H14.1842H14.1842H14.1841H14.1841H14.1841H14.184H14.184H14.184H14.1839H14.1839H14.1838H14.1838H14.1838H14.1837H14.1837H14.1837H14.1836H14.1836H14.1835H14.1835H14.1835H14.1834H14.1834H14.1833H14.1833H14.1833H14.1832H14.1832H14.1832H14.1831H14.1831H14.183H14.183H14.183H14.1829H14.1829H14.1828H14.1828H14.1828H14.1827H14.1827H14.1826H14.1826H14.1826H14.1825H14.1825H14.1824H14.1824H14.1823H14.1823H14.1823H14.1822H14.1822H14.1821H14.1821H14.1821H14.182H14.182H14.1819H14.1819H14.1818H14.1818H14.1818H14.1817H14.1817H14.1816H14.1816H14.1815H14.1815H14.1814H14.1814H14.1814H14.1813H14.1813H14.1812H14.1812H14.1811H14.1811H14.181H14.181H14.1809H14.1809H14.1809H14.1808H14.1808H14.1807H14.1807H14.1806H14.1806H14.1805H14.1805H14.1804H14.1804H14.1803H14.1803H14.1802H14.1802H14.1801H14.1801H14.18H14.18H14.1799H14.1799H14.1798H14.1798H14.1797H14.1797H14.1796H14.1796H14.1795H14.1795H14.1794H14.1794H14.1793H14.1793H14.1792H14.1792H14.1791H14.1791H14.179H14.179H14.1789H14.1789H14.1788H14.1788H14.1787H14.1786H14.1786H14.1785H14.1785H14.1784H14.1784H14.1783H14.1783H14.1782H14.1781H14.1781H14.178H14.178H14.1779H14.1779H14.1778H14.1777H14.1777H14.1776H14.1776H14.1775H14.1775H14.1774H14.1773H14.1773H14.1772H14.1772H14.1771H14.177H14.177H14.1769H14.1769H14.1768H14.1767H14.1767H14.1766H14.1765H14.1765H14.1764H14.1764H14.1763H14.1762H14.1762H14.1761H14.176H14.176H14.1759H14.1758H14.1758H14.1757H14.1756H14.1756H14.1755H14.1754H14.1754H14.1753H14.1752H14.1752H14.1751H14.175H14.1749H14.1748H14.1746H14.1745H14.1744H14.1742H14.1741H14.174H14.1738H14.1737H14.1736H14.1734H14.1733H14.1732H14.173H14.1729H14.1728H14.1726H14.1725H14.1724H14.1722H14.1721H14.172H14.1718H14.1717H14.1716H14.1714H14.1713H14.1712H14.1711H14.1709H14.1708H14.1707H14.1705H14.1704H14.1703H14.1702H14.17H14.1699H14.1698H14.1696H14.1695H14.1694H14.1693H14.1691H14.169H14.1689H14.1688H14.1686H14.1685H14.1684H14.1683H14.1681H14.168H14.1679H14.1678H14.1676H14.1675H14.1674H14.1673H14.1672H14.167H14.1669H14.1668H14.1667H14.1665H14.1664H14.1663H14.1662H14.1661H14.1659H14.1658H14.1657H14.1656H14.1655H14.1653H14.1652H14.1651H14.165H14.1649H14.1647H14.1646H14.1645H14.1644H14.1643H14.1642H14.164H14.1639H14.1638H14.1637H14.1636H14.1635H14.1633H14.1632H14.1631H14.163H14.1629H14.1628H14.1626H14.1625H14.1624H14.1623H14.1622H14.1621H14.162H14.1618H14.1617H14.1616H14.1615H14.1614H14.1613H14.1612H14.161H14.1609H14.1608H14.1607H14.1606H14.1605H14.1604H14.1603H14.1601H14.16H14.1599H14.1598H14.1597H14.1596H14.1595H14.1594H14.1593H14.1591H14.159H14.1589H14.1588H14.1587H14.1586H14.1585H14.1584H14.1583H14.1581H14.158H14.1579H14.1578H14.1577H14.1576H14.1575H14.1574H14.1573H14.1572H14.1571H14.1569H14.1568H14.1567H14.1566H14.1565H14.1564H14.1563H14.1562H14.1561H14.156H14.1559H14.1558H14.1557H14.1555H14.1554H14.1553H14.1552H14.1551H14.155H14.1549H14.1548H14.1547H14.1546H14.1545H14.1544H14.1543H14.1542H14.1541H14.154H14.1538H14.1537H14.1536H14.1535H14.1534H14.1533H14.1532H14.1531H14.153H14.1529H14.1528H14.1527H14.1526H14.1525H14.1524H14.1523H14.1522H14.1521H14.152H14.1519H14.1518H14.1516H14.1515H14.1514H14.1513H14.1512H14.1512C14.0493 12.8928 13.9416 12.8942 13.8419 12.9039C11.0684 12.7908 8.95837 10.5888 8.95837 7.87498Z" fill="white" stroke="white"/>
<path d="M8.35201 23.6066L8.35064 23.6057C6.98169 22.693 6.28662 21.5034 6.28662 20.2767C6.28662 19.0496 6.98204 17.8486 8.36198 16.9246C9.90271 15.9051 11.9476 15.3809 14.0145 15.3809C16.0821 15.3809 18.1208 15.9054 19.6493 16.9244C21.0147 17.8346 21.7025 19.0239 21.7133 20.2554C21.7125 21.4935 21.017 22.6829 19.6474 23.6069C18.1133 24.6368 16.0694 25.1667 14 25.1667C11.9303 25.1667 9.88623 24.6367 8.35201 23.6066Z" fill="white" stroke="white"/>
</svg>
